<?xml version="1.0" encoding="utf-8"?>
<!-- Generator: Adobe Illustrator 22.0.1, SVG Export Plug-In . SVG Version: 6.00 Build 0)  -->
<svg version="1.1" id="Layer_1" xmlns="http://www.w3.org/2000/svg" xmlns:xlink="http://www.w3.org/1999/xlink" x="0px" y="0px"
	 viewBox="0 0 100 100" style="enable-background:new 0 0 100 100;" xml:space="preserve">
<style type="text/css">
	.st0{fill-rule:evenodd;clip-rule:evenodd;fill:#595959;}
</style>
<g>
	<path class="st0" d="M64.4,52.7H41.7c-3.8-7.9-7.2-16.3-10.8-24.2h-8.5v3h6.4c3.4,8.1,7,16.1,10.6,24h25
		C64.6,54.8,64.4,53.5,64.4,52.7L64.4,52.7z M58.9,58.6c-1.7,0.4-3.2,1.9-3.4,3.6c-0.6,2.8,1.3,5.1,3.4,5.5c3.8,0.6,6.1-2.4,5.5-5.5
		C64,59.7,61.6,58.2,58.9,58.6L58.9,58.6z M43.9,58.6c-1.7,0.4-3.2,1.9-3.6,3.6c-0.4,2.8,1.5,5.1,3.6,5.5c3.6,0.6,5.9-2.4,5.5-5.5
		C49.1,59.7,46.6,58.2,43.9,58.6L43.9,58.6z M43.4,49.5c7,0,14.2,0,21.2,0l5.9-14.9H37.5l1,3h5.7l1.1,3h-5.5l1.1,2.8h5.7l1.1,3.2
		h-5.5L43.4,49.5z"/>
</g>
</svg>
